<?xml version="1.0" encoding="utf-8"?>
<!-- Generator: Adobe Illustrator 25.4.1, SVG Export Plug-In . SVG Version: 6.00 Build 0)  -->
<svg version="1.1" id="Layer_1" focusable="false" xmlns="http://www.w3.org/2000/svg" xmlns:xlink="http://www.w3.org/1999/xlink"
	 x="0px" y="0px" viewBox="0 0 640 512" style="enable-background:new 0 0 640 512;" xml:space="preserve">
<path d="M243.2,196.1c1.8-29.8,16.7-59.2,42.6-77.2c-5-10.4-15.4-17.7-27.7-17.7h-28.4L259.4,80c7-4.9,8.6-14.6,3.6-21.6l-9-12.6
	c-4.9-7-14.6-8.6-21.6-3.6l-31,22.1l11.1-29.6c3-8-1.1-16.9-9.1-19.9l-14.5-5.4c-8-3-16.9,1.1-19.9,9.1l-19.2,51.3l-19.2-51.4
	c-3-8-11.9-12.1-19.9-9.1l-14.5,5.4c-8,3-12.1,12-9,19.9l11.1,29.6l-31-22.1c-7-4.9-16.6-3.4-21.6,3.6l-9,12.6
	c-4.9,7-3.4,16.6,3.6,21.6l29.7,21.3H41.4c-17.1,0-31,13.8-31,31v340.5c0,17.1,13.8,31,31,31h163.4c-5.3-9.2-8.6-19.6-8.6-31V256
	C196.2,227.1,216.3,202.8,243.2,196.1z M227.1,472.7c0,17.1,13.8,31,31,31h154.8V379.8H227.1V472.7z M443.8,503.6h154.8
	c17.1,0,31-13.8,31-31v-92.9H443.8V503.6z M598.6,225.1h-19.7c2.5-7.4,4.3-15,4.3-23c0-34.3-26.1-69.8-69.7-69.8
	c-46.5,0-73.4,46.1-85,72.8c-11.7-26.7-38.6-72.8-85-72.8c-43.6,0-69.7,35.5-69.7,69.8c0,8,1.6,15.7,4.3,23h-19.7
	c-17.1,0-31,13.8-31,31v92.9h185.7V225.1h14.8l0.7-0.2l0.7,0.2h14.8v123.8h185.7V256C629.5,238.9,615.7,225.1,598.6,225.1z
	 M335.5,225.1c-2.6-1.4-4.9-2.9-7-4.6c-7.1-6.2-8.5-13.3-8.5-18.4c0-9.4,6.2-23.4,23.3-23.4c18.1,0,34.4,26.5,43,46.4H335.5z
	 M528.1,220.4c-2,1.7-4.4,3.3-7,4.6h-50.9c8.5-19.6,25-46.4,43-46.4c17.1,0,23.3,14,23.3,23.4C536.7,207.1,535.2,214.2,528.1,220.4z
	"/>
</svg>
