<?xml version="1.0" encoding="utf-8"?>
<!-- Generator: Adobe Illustrator 25.4.1, SVG Export Plug-In . SVG Version: 6.00 Build 0)  -->
<svg version="1.1" id="Layer_1" focusable="false" xmlns="http://www.w3.org/2000/svg" xmlns:xlink="http://www.w3.org/1999/xlink"
	 x="0px" y="0px" viewBox="0 0 720 512" style="enable-background:new 0 0 720 512;" xml:space="preserve">
<path d="M112.9,220.6c39,0,70.7-31.7,70.7-70.7s-31.7-70.7-70.7-70.7s-70.7,31.7-70.7,70.7S73.9,220.6,112.9,220.6z M608.1,220.6
	c39,0,70.7-31.7,70.7-70.7s-31.7-70.7-70.7-70.7s-70.7,31.7-70.7,70.7S569.1,220.6,608.1,220.6z M643.5,256h-70.7
	c-19.5,0-37,7.8-49.9,20.6c44.5,24.4,76.2,68.5,83,120.9h73c19.6,0,35.4-15.8,35.4-35.4v-35.4C714.2,287.7,682.5,256,643.5,256z
	 M360.5,256c68.4,0,123.8-55.4,123.8-123.8S428.9,8.4,360.5,8.4S236.7,63.8,236.7,132.2S292.1,256,360.5,256z M445.4,291.4h-9.2
	c-23,11.1-48.5,17.7-75.7,17.7s-52.6-6.6-75.7-17.7h-9.2c-70.3,0-127.3,57-127.3,127.3v31.8c0,29.3,23.8,53.1,53.1,53.1h318.4
	c29.3,0,53.1-23.8,53.1-53.1v-31.8C572.7,348.4,515.7,291.4,445.4,291.4z M198.1,276.6c-12.8-12.7-30.4-20.6-49.9-20.6H77.5
	c-39,0-70.7,31.7-70.7,70.7v35.4c0,19.6,15.8,35.4,35.4,35.4H115C122,345.1,153.6,301,198.1,276.6L198.1,276.6z"/>
</svg>
